<svg width="248" height="248" viewBox="0 0 248 248" fill="none" xmlns="http://www.w3.org/2000/svg">
<g opacity="0.1" clip-path="url(#clip0_3169_610)">
<path d="M164.411 51.054L82.9136 196.271" stroke="#4991FF" stroke-width="24" stroke-linecap="round" stroke-linejoin="round"/>
<path d="M182.597 95.9792L133.092 68.196C126.964 64.7573 119.722 63.8935 112.958 65.7946C106.194 67.6957 100.462 72.206 97.0233 78.3332C93.5846 84.4605 92.7208 91.7028 94.6219 98.4669C96.523 105.231 101.033 110.963 107.161 114.402L140.164 132.924C146.292 136.362 150.802 142.094 152.703 148.858C154.604 155.622 153.74 162.865 150.302 168.992C146.863 175.119 141.131 179.63 134.367 181.531C127.603 183.432 120.361 182.568 114.233 179.129L58.1267 147.642" stroke="#4991FF" stroke-width="24" stroke-linecap="round" stroke-linejoin="round"/>
</g>
<defs>
<clipPath id="clip0_3169_610">
<rect width="181.662" height="181.662" fill="white" transform="translate(88.9062) rotate(29.3016)"/>
</clipPath>
</defs>
</svg>
