<svg width="422" height="452" viewBox="0 0 422 452" fill="none" xmlns="http://www.w3.org/2000/svg">
<g opacity="0.1" clip-path="url(#clip0_3169_636)">
<path d="M122.367 122.367L329.45 329.449" stroke="#4991FF" stroke-width="24" stroke-linecap="round" stroke-linejoin="round"/>
<path d="M207.083 112.954L136.486 183.55C127.749 192.288 122.84 204.139 122.84 216.495C122.84 228.852 127.749 240.703 136.486 249.44C145.224 258.178 157.075 263.087 169.431 263.087C181.788 263.087 193.639 258.178 202.376 249.44L249.441 202.376C258.178 193.639 270.029 188.73 282.386 188.73C294.742 188.73 306.593 193.639 315.33 202.376C324.068 211.114 328.977 222.964 328.977 235.321C328.977 247.678 324.068 259.528 315.33 268.266L235.321 348.275" stroke="#4991FF" stroke-width="24" stroke-linecap="round" stroke-linejoin="round"/>
</g>
<defs>
<clipPath id="clip0_3169_636">
<rect width="319.483" height="319.483" fill="white" transform="translate(0 225.908) rotate(-45)"/>
</clipPath>
</defs>
</svg>
