<svg width="258" height="258" viewBox="0 0 258 258" fill="none" xmlns="http://www.w3.org/2000/svg">
<g opacity="0.1" clip-path="url(#clip0_3169_624)">
<path d="M69.7876 69.7878L187.537 187.537" stroke="#4991FF" stroke-width="24" stroke-linecap="round" stroke-linejoin="round"/>
<path d="M117.958 64.4356L77.8164 104.578C72.8481 109.546 70.057 116.284 70.057 123.31C70.057 130.337 72.8481 137.075 77.8164 142.043C82.7847 147.012 89.5231 149.803 96.5493 149.803C103.575 149.803 110.314 147.012 115.282 142.043L142.043 115.282C147.012 110.314 153.75 107.523 160.776 107.523C167.803 107.523 174.541 110.314 179.509 115.282C184.478 120.25 187.269 126.989 187.269 134.015C187.269 141.041 184.478 147.78 179.509 152.748L134.015 198.242" stroke="#4991FF" stroke-width="24" stroke-linecap="round" stroke-linejoin="round"/>
</g>
<defs>
<clipPath id="clip0_3169_624">
<rect width="181.662" height="181.662" fill="white" transform="translate(0.208496 128.663) rotate(-45)"/>
</clipPath>
</defs>
</svg>
