<svg width="194" height="194" viewBox="0 0 194 194" fill="none" xmlns="http://www.w3.org/2000/svg">
<g opacity="0.1" clip-path="url(#clip0_3169_633)">
<path d="M86.488 86.6837C83.9351 90.439 82.2198 94.6994 81.4583 99.176C80.6968 103.652 80.907 108.24 82.0745 112.629C83.2421 117.017 85.3397 121.103 88.2251 124.609C91.1106 128.115 94.7163 130.96 98.7978 132.95L122.948 144.731C130.472 148.241 139.075 148.655 146.902 145.884C154.729 143.113 161.155 137.379 164.796 129.917C168.436 122.454 169 113.86 166.365 105.986C163.731 98.1117 158.109 91.5872 150.711 87.8176L136.925 81.0426" stroke="#4991FF" stroke-width="24" stroke-linecap="round" stroke-linejoin="round"/>
<path d="M106.711 106.514C109.264 102.759 110.979 98.4987 111.74 94.0222C112.502 89.5456 112.292 84.9577 111.124 80.5695C109.957 76.1813 107.859 72.0956 104.974 68.5894C102.088 65.0832 98.4824 62.2385 94.4009 60.2484L70.2511 48.4676C62.7263 44.9574 54.1239 44.543 46.2967 47.3138C38.4694 50.0846 32.0436 55.8189 28.4031 63.2815C24.7627 70.7441 24.1989 79.338 26.8333 87.2122C29.4677 95.0864 35.0893 101.611 42.4876 105.381L56.2529 112.096" stroke="#4991FF" stroke-width="24" stroke-linecap="round" stroke-linejoin="round"/>
</g>
<defs>
<clipPath id="clip0_3169_633">
<rect width="152" height="152" fill="white" transform="translate(143.723) rotate(71.0042)"/>
</clipPath>
</defs>
</svg>
