<svg width="548" height="548" viewBox="0 0 548 548" fill="none" xmlns="http://www.w3.org/2000/svg">
<g opacity="0.15" clip-path="url(#clip0_3169_618)">
<path d="M358.968 226.831L402.269 251.831C411.747 257.303 420.054 264.588 426.715 273.27C433.377 281.952 438.264 291.861 441.097 302.432C443.929 313.002 444.652 324.027 443.223 334.877C441.795 345.727 438.243 356.189 432.771 365.667C427.3 375.144 420.015 383.451 411.333 390.113C402.651 396.775 392.742 401.661 382.171 404.494C371.6 407.326 360.575 408.049 349.726 406.62C338.876 405.192 328.413 401.641 318.936 396.169L275.635 371.169M189.032 321.169L145.731 296.169C136.254 290.697 127.947 283.412 121.285 274.73C114.623 266.048 109.736 256.139 106.904 245.568C101.184 224.22 104.178 201.474 115.229 182.333C126.28 163.193 144.481 149.226 165.829 143.506C187.178 137.786 209.924 140.781 229.064 151.831L272.366 176.831" stroke="#4991FF" stroke-width="24" stroke-linecap="round" stroke-linejoin="round"/>
<path d="M216.265 240.667L331.735 307.333" stroke="#4991FF" stroke-width="24" stroke-linecap="round" stroke-linejoin="round"/>
</g>
<defs>
<clipPath id="clip0_3169_618">
<rect width="400" height="400" fill="white" transform="translate(200.795 0.794922) rotate(30)"/>
</clipPath>
</defs>
</svg>
