<svg width="194" height="194" viewBox="0 0 194 194" fill="none" xmlns="http://www.w3.org/2000/svg">
<g opacity="0.1" clip-path="url(#clip0_3169_621)">
<path d="M86.8888 87.0846C84.336 90.8399 82.6207 95.1003 81.8592 99.5768C81.0977 104.053 81.3079 108.641 82.4754 113.029C83.6429 117.418 85.7406 121.503 88.626 125.01C91.5115 128.516 95.1172 131.36 99.1987 133.351L123.348 145.131C130.873 148.642 139.476 149.056 147.303 146.285C155.13 143.514 161.556 137.78 165.196 130.318C168.837 122.855 169.401 114.261 166.766 106.387C164.132 98.5126 158.51 91.988 151.112 88.2185L137.326 81.4435" stroke="#4991FF" stroke-width="24" stroke-linecap="round" stroke-linejoin="round"/>
<path d="M107.112 106.915C109.664 103.16 111.38 98.8997 112.141 94.4232C112.903 89.9466 112.693 85.3587 111.525 80.9705C110.357 76.5823 108.26 72.4966 105.374 68.9904C102.489 65.4842 98.8832 62.6395 94.8017 60.6494L70.652 48.8686C63.1272 45.3584 54.5248 44.944 46.6976 47.7148C38.8703 50.4856 32.4444 56.2199 28.804 63.6825C25.1636 71.1451 24.5998 79.739 27.2342 87.6132C29.8685 95.4874 35.4902 102.012 42.8884 105.782L56.6538 112.497" stroke="#4991FF" stroke-width="24" stroke-linecap="round" stroke-linejoin="round"/>
</g>
<defs>
<clipPath id="clip0_3169_621">
<rect width="152" height="152" fill="white" transform="translate(144.124 0.400879) rotate(71.0042)"/>
</clipPath>
</defs>
</svg>
