<svg width="292" height="292" viewBox="0 0 292 292" fill="none" xmlns="http://www.w3.org/2000/svg">
<g opacity="0.1">
<path d="M121.667 158.167C126.892 165.152 133.558 170.932 141.213 175.114C148.868 179.297 157.333 181.784 166.034 182.407C174.735 183.03 183.468 181.774 191.641 178.726C199.814 175.677 207.236 170.906 213.403 164.737L249.903 128.237C260.984 116.763 267.116 101.397 266.978 85.4465C266.839 69.4961 260.441 54.2384 249.162 42.9594C237.883 31.6804 222.625 25.2826 206.675 25.144C190.725 25.0054 175.358 31.1371 163.885 42.2184L142.958 63.0234" stroke="#4991FF" stroke-width="24" stroke-linecap="round" stroke-linejoin="round"/>
<path d="M170.333 133.833C165.108 126.848 158.442 121.068 150.787 116.886C143.132 112.704 134.667 110.216 125.966 109.593C117.265 108.97 108.532 110.226 100.359 113.274C92.1856 116.323 84.7638 121.094 78.5967 127.263L42.0967 163.763C31.0154 175.237 24.8837 190.603 25.0223 206.554C25.1609 222.504 31.5587 237.762 42.8377 249.041C54.1167 260.32 69.3744 266.717 85.3247 266.856C101.275 266.995 116.642 260.863 128.115 249.782L148.92 228.977" stroke="#4991FF" stroke-width="24" stroke-linecap="round" stroke-linejoin="round"/>
</g>
</svg>
