<svg width="566" height="566" viewBox="0 0 566 566" fill="none" xmlns="http://www.w3.org/2000/svg">
<g opacity="0.15" clip-path="url(#clip0_3169_609)">
<path d="M259.272 188.562L294.628 153.207C302.366 145.468 311.552 139.33 321.663 135.142C331.773 130.954 342.61 128.799 353.553 128.799C364.497 128.799 375.333 130.954 385.444 135.142C395.554 139.33 404.741 145.468 412.479 153.207C420.217 160.945 426.355 170.131 430.543 180.242C434.731 190.352 436.887 201.189 436.887 212.132C436.887 223.076 434.731 233.912 430.543 244.022C426.355 254.133 420.217 263.319 412.479 271.058L377.123 306.413M306.413 377.124L271.057 412.479C263.319 420.217 254.133 426.356 244.022 430.543C233.912 434.731 223.075 436.887 212.132 436.887C190.031 436.887 168.834 428.107 153.206 412.479C137.578 396.851 128.799 375.655 128.799 353.553C128.799 331.452 137.578 310.256 153.206 294.628L188.562 259.273" stroke="#4991FF" stroke-width="24" stroke-linecap="round" stroke-linejoin="round"/>
<path d="M235.702 329.983L329.983 235.702" stroke="#4991FF" stroke-width="24" stroke-linecap="round" stroke-linejoin="round"/>
</g>
<defs>
<clipPath id="clip0_3169_609">
<rect width="400" height="400" fill="white" transform="translate(0 282.843) rotate(-45)"/>
</clipPath>
</defs>
</svg>
