<svg width="567" height="623" viewBox="0 0 567 623" fill="none" xmlns="http://www.w3.org/2000/svg">
<g opacity="0.1" clip-path="url(#clip0_3169_612)">
<path d="M138.935 350.548C160.421 329.062 160.421 294.227 138.935 272.741C117.449 251.256 82.6143 251.256 61.1287 272.741C39.6431 294.227 39.6431 329.062 61.1287 350.548C82.6143 372.033 117.449 372.033 138.935 350.548Z" stroke="#4991FF" stroke-width="24" stroke-linecap="round" stroke-linejoin="round"/>
<path d="M294.548 506.16C316.033 484.675 316.033 449.84 294.548 428.354C273.062 406.868 238.227 406.868 216.742 428.354C195.256 449.84 195.256 484.675 216.742 506.16C238.227 527.646 273.062 527.646 294.548 506.16Z" stroke="#4991FF" stroke-width="24" stroke-linecap="round" stroke-linejoin="round"/>
<path d="M255.644 104.161L255.644 412.274" stroke="#4991FF" stroke-width="24" stroke-linecap="round" stroke-linejoin="round"/>
<path d="M319.835 311.774L463.128 311.644" stroke="#4991FF" stroke-width="24" stroke-linecap="round" stroke-linejoin="round"/>
<path d="M155.015 311.645L255.645 311.645" stroke="#4991FF" stroke-width="24" stroke-linecap="round" stroke-linejoin="round"/>
</g>
<defs>
<clipPath id="clip0_3169_612">
<rect width="440.139" height="440.139" fill="white" transform="translate(-55.5806 311.645) rotate(-45)"/>
</clipPath>
</defs>
</svg>
