<svg width="324" height="324" viewBox="0 0 324 324" fill="none" xmlns="http://www.w3.org/2000/svg">
<g opacity="0.1" clip-path="url(#clip0_3169_611)">
<path d="M114.855 110.169C130.978 116.406 149.105 108.392 155.342 92.2681C161.579 76.1446 153.565 58.0178 137.441 51.7807C121.318 45.5436 103.191 53.5581 96.9538 69.6816C90.7167 85.8051 98.7313 103.932 114.855 110.169Z" stroke="#4991FF" stroke-width="24" stroke-linecap="round" stroke-linejoin="round"/>
<path d="M69.6819 226.946C85.8054 233.183 103.932 225.168 110.169 209.045C116.406 192.921 108.392 174.794 92.2684 168.557C76.1449 162.32 58.0181 170.335 51.781 186.458C45.5439 202.582 53.5584 220.709 69.6819 226.946Z" stroke="#4991FF" stroke-width="24" stroke-linecap="round" stroke-linejoin="round"/>
<path d="M269.917 114.214L109.586 185.102" stroke="#4991FF" stroke-width="24" stroke-linecap="round" stroke-linejoin="round"/>
<path d="M176.651 195.382L209.686 269.916" stroke="#4991FF" stroke-width="24" stroke-linecap="round" stroke-linejoin="round"/>
<path d="M138.798 109.586L161.95 161.95" stroke="#4991FF" stroke-width="24" stroke-linecap="round" stroke-linejoin="round"/>
</g>
<defs>
<clipPath id="clip0_3169_611">
<rect width="250.419" height="250.419" fill="white" transform="translate(90.3462) rotate(21.1481)"/>
</clipPath>
</defs>
</svg>
